<svg xmlns="http://www.w3.org/2000/svg" viewBox="0 0 59.93 59.93"><defs><style>.a,.c{fill:#d50000;}.b{fill:#9b0000;}.b,.c,.d{stroke:#fff;stroke-miterlimit:10;}.d{fill:#c40000;}</style></defs><title>launcher-icon-</title><rect class="a" width="59.93" height="59.93"/><ellipse class="b" cx="40.75" cy="16.45" rx="0.69" ry="2.71" transform="matrix(0.55, -0.83, 0.83, 0.55, 4.55, 41.36)"/><path class="c" d="M29,21.89"/><ellipse class="b" cx="38.89" cy="20.1" rx="1.45" ry="8.29" transform="translate(0.68 41.45) rotate(-56.52)"/><path class="c" d="M19.32,48.64c-8.11-20.28-4.39-29.07-4.39-29.07s1-5.75,6.76-6.08,7.44,4.06,7.77,7.77l2.7-5.41S38.58,22.61,45.34,25L32.83,48.64Z"/><ellipse class="b" cx="22.06" cy="21.92" rx="4.15" ry="4.5"/><path class="c" d="M29.46,21.26"/><path class="d" d="M45.45,24.56a31.22,31.22,0,0,1-6.25-3c-4.11-2.64-6.76-4.67-6.45-5.93.38-1.56,5.61-2.79,9.17-.52C44.71,16.88,46.11,20.6,45.45,24.56Z"/><path class="c" d="M38.82,15.67l2-3.82A9.22,9.22,0,0,0,45,14.94l-2.22,3.67C42.68,18.85,39.83,17.71,38.82,15.67Z"/><path class="b" d="M45.34,14.5c-.21.32-1.4-.09-2.65-.92s-2-1.87-1.8-2.19,1.32.21,2.57,1S45.55,14.18,45.34,14.5Z"/></svg>