<?xml version="1.0" standalone="no"?>
<!DOCTYPE svg PUBLIC "-//W3C//DTD SVG 20010904//EN"
 "http://www.w3.org/TR/2001/REC-SVG-20010904/DTD/svg10.dtd">
<svg version="1.0" xmlns="http://www.w3.org/2000/svg"
 width="960.000000pt" height="960.000000pt" viewBox="0 0 960.000000 960.000000"
 preserveAspectRatio="xMidYMid meet">
<metadata>
Created by potrace 1.11, written by Peter Selinger 2001-2013
</metadata>
<g transform="translate(0.000000,960.000000) scale(0.100000,-0.100000)"
fill="#000000" stroke="none">
<path d="M5 9588 c-3 -7 -4 -2166 -3 -4798 l3 -4785 4798 -3 4797 -2 0 4800 0
4800 -4795 0 c-3827 0 -4797 -3 -4800 -12z m6777 -1790 c250 -126 470 -299
537 -423 31 -58 29 -124 -6 -161 -15 -16 -67 -93 -115 -172 l-87 -143 36 -56
c52 -81 117 -223 152 -330 54 -166 73 -288 78 -508 4 -168 7 -207 24 -247 36
-87 16 -170 -48 -198 -25 -11 -166 -272 -1038 -1921 l-1009 -1909 -1131 0
-1130 0 -32 82 c-282 738 -419 1154 -558 1703 -186 731 -269 1329 -268 1935 0
465 32 701 147 1090 105 354 278 607 532 776 206 137 412 194 704 194 236 0
385 -30 555 -113 304 -148 516 -441 615 -851 11 -43 21 -81 24 -83 3 -3 67
118 142 268 134 267 137 276 138 340 1 52 6 72 21 89 26 30 75 50 122 50 28 0
45 7 62 26 87 91 270 166 486 199 154 23 461 17 556 -11 12 -3 36 35 97 155
45 87 82 169 82 182 1 67 50 101 137 96 52 -2 81 -12 175 -59z"/>
<path d="M6680 7661 c38 -72 301 -253 435 -300 50 -18 -88 106 -202 181 -95
63 -225 138 -237 138 -4 0 -2 -9 4 -19z"/>
<path d="M6512 7478 c-22 -40 -76 -144 -122 -231 -78 -150 -82 -160 -69 -185
24 -47 181 -197 262 -251 78 -52 191 -111 214 -111 6 0 75 104 152 232 l140
232 -100 53 c-129 67 -240 147 -350 251 l-87 83 -40 -73z"/>
<path d="M3430 7355 c-8 -2 -49 -9 -90 -15 -408 -67 -716 -369 -856 -840 -113
-383 -144 -607 -144 -1057 0 -553 73 -1100 235 -1771 125 -513 315 -1112 519
-1637 l55 -140 1033 -3 1033 -2 968 1831 c533 1007 967 1832 965 1833 -2 2
-50 22 -108 46 -226 95 -495 243 -760 420 -167 111 -225 153 -520 378 -289
221 -315 243 -461 395 l-127 131 -250 -499 c-229 -459 -250 -497 -255 -465 -4
19 -13 109 -22 200 -42 445 -158 736 -377 946 -137 131 -284 203 -487 238 -82
14 -301 21 -351 11z m263 -491 c211 -46 391 -194 499 -408 62 -123 81 -207 81
-366 1 -164 -14 -233 -83 -375 -125 -258 -345 -409 -616 -423 -366 -18 -681
242 -759 627 -23 111 -16 294 14 399 62 215 208 395 395 488 50 24 120 51 156
58 88 19 226 19 313 0z"/>
<path d="M3423 6715 c-135 -29 -275 -128 -356 -253 -139 -213 -153 -448 -41
-681 100 -207 295 -335 509 -335 154 -1 274 50 392 165 258 251 261 691 6 945
-144 144 -323 200 -510 159z"/>
<path d="M5765 7284 c-183 -28 -345 -93 -410 -166 -41 -45 -43 -60 -12 -119
72 -143 324 -354 792 -664 288 -191 433 -276 627 -369 139 -67 425 -186 447
-186 15 0 24 146 18 271 -8 140 -37 299 -79 423 -32 95 -113 266 -126 266 -4
0 -31 -40 -61 -89 -29 -50 -60 -96 -68 -103 -27 -22 -111 -13 -191 21 -231 96
-456 291 -550 476 l-20 41 48 94 c27 52 48 95 46 97 -1 1 -33 7 -72 13 -95 13
-281 11 -389 -6z"/>
</g>
</svg>
